<svg xmlns="http://www.w3.org/2000/svg" viewBox="0 0 3840 5830">
    <path d="m3399.94 2698.67 2.23 28-8.45 11.11-66.05 139.68-148.23-20.22-29.5 41.16-16.66-2.66-11.67 19.26-2.5 5.4-52.22 92.39-3.67 5.11-8-.77-5.11 8.22-24.55.89-29.12 1.44-28.44-4.78-1.44 3-16.89-3.22 1-8.33-259.61-37.11-5.5 8-18.34-2.17.84-4.17-25.84-2.33-28-10.17-9.66-1.66-37.23-3.73-11.77 14 4.88 4.45.34 16h5.89l-4.78 6.78-473.11-71.73 13-10.5-.67-6.16.17-5.67 3.83-4v-5.83L1225.5 2771.9l-28.67 18.11 1 7.12 4.67.77.89 3.56-383.89-54.11.67-14.86 4.16-4.06-.39-8.61s3.28-.33 3.45-.33.94-9.89.94-9.89l-21.16-3.39-68.84-4.5-3.08 2.08-13.42-1.66v-9.25L538 2668.13l-10.92 5.66-12.91-1.41.41-3.75-15.33-1.59-19.83-9-2.84-3.83-1.9-12.29-24.78-265.5-2.22-.67-3-6.78-.56-4.78-5.44-4-1.22-5.88 113.66-46.25-3.58-35.17c-8.07-7.14-7.61-15.48-2.92-24.42-12.62-12.37-2.62-23.14 13.34-33.5 4.36-57.42 32.71-104.93 93.55-139.03-5.24-7.45-2.71-11.19 4.84-12.55 4.31-4.89 9.21-8.34 14.5-10.83-1.62-3.6 3.92-5.97 10.21-8.21l-1.09-4.67c2.61-.33 3.15-1.67 2.17-3.75-1.46-3.59-.68-5.9 1.75-7.25l1.25-29.92 5.11 29.59c3.27 1.91 4.45 3.88 2.36 5.97l1.25 3.3c2.52 1.36 3.14 2.68 1.54 3.98.07 2.53 1.12 4.22 3.13 5.08 7.05-.14 9.66 1.67 7.91 5.39 4.36.66 8.84 2.94 13.38 6.17 10.73 1.37 16.43 5 10.49 13.84 51.4 24.23 97.31 55.87 113.02 128.2 15.1 6.69 28.18 14.32 18.59 32.5 6.14 6.15 6.72 13.62.66 22.66l2.34 45 65.83 6 31.17 11.17-.17 7.17-4.5 2.5 1.5 9.83-5.67 1 6.67 104 139.83-118-8.5.17-.66-11.17 393.94-188.39 285.61 27.56v-3.5l-4.28-.39-.16-7.64 57.66-30.83 542.34 50.66.33 8-5.67 3.17.5 8.17-5.33 3.16-.83 24.5 287.78 27.5-.23 10.23-2.44 2.11 133 109.89c26.27-32.5 57.81-54.69 94.19-67.45-5.51-11.75.55-16.11 12.39-16.78 2.53-3.8 7.77-6.17 14.09-7.97.04-4.87 5.36-6.75 12-7.89-.9-2.48-.04-4.44 2-6.05 1.7-.71 2.83-1.84 2.22-4.23-2.27-2.73-.18-5.25 3.05-7.72l6.06-37.5.44 37c3.79 2.26 5.39 4.52 3.39 6.78l-.55 4.83c3.79 2.08 4.77 4.21 1.44 6.45 4.28 5.89 14.45 2.61 12.33 9.8 3.98 1.62 7.7 4.12 11.14 7.56 14.76 3.61 19.83 9.88 13 19.44 43.36 22.53 99.78 71.11 106.5 155.09 22.46 12.6 30.77 27.17 19.25 44.5 7.08 15.75 2.9 24.77-6.97 30.39l-.89 25.33 32 5.33 47.11 14.22-15.11 39.56 170.22 20.89-8.88 12 112.88 13.78z"/>
    <path d="M3393.72 2737.78 3364.83 3060l-58.22 107.56-90.89-9-34 73-40-6.34-80 156-16.33-4.33-4.67 5.11-17.55-.67-1.78 2.89-34-5.55v-4h-7.78l1.56-8-142.67-21.56-4.44 4.22-9.56-.89v2.67l-66.22-10.67v-2.66l-7.34-1.11V3330l-138.22-22-3.55 4.67h-8.89l-56.45-8.45 5.78-11.78-59.55-8.66-403.78-60.67-11.56-24.67-103.33-13.55-257.33-38.67-19.78-10-105.56-14.44h-6l-235.33-39.56-4.67 2-21.33 1.11-101.78-13.89-34.33-3.88-1.22-4.12-278.31-46.19-11.33 3.83-41.98-10.64-11-2.44-13.66 7.89-12.89-1.11-3.33 1.11-25.56-4.33v-1.89l-3.56-1.56.78-7.22-98.22-15.33-9.56 4.88-6.22-1.11-4.78 2.23-48.88-8.56-3-1.89V2975l-98.89-15.33-5.34 2.33-6.77-.44-2.89 1.77-25.78-3.55v-3.22l-8.78-4.67L437 2684.67l-11-19 48.68-23.75 1.9 12.29 2.84 3.83 19.83 9 15.33 1.59-.41 3.75 12.91 1.41 10.92-5.66 183.83 24.75v9.25l13.42 1.66 3.08-2.08 68.84 4.5 21.16 3.39s-.77 9.89-.94 9.89-3.45.33-3.45.33l.39 8.61-4.16 4.06-.67 14.86 383.89 54.11-.89-3.56-4.67-.77-1-7.12 28.67-18.11 879.61 126.45v5.83l-3.83 4-.17 5.67.67 6.16-13 10.5 473.11 71.73 4.78-6.78h-5.89l-.34-16-4.88-4.45 11.77-14 37.23 3.73 9.66 1.66 28 10.17 25.84 2.33-.84 4.17 18.34 2.17 5.5-8 259.61 37.11-1 8.33 16.89 3.22 1.44-3 28.44 4.78 29.12-1.44 24.55-.89 5.11-8.22 8 .77 3.67-5.11 52.22-92.39 2.5-5.4 11.67-19.26 16.66 2.66 29.5-41.16 148.23 20.22z"/>
    <path d="m3364.83 3060-34.77 307.46-61.78 152-132.89-25.33-74.33 248.33-33.67-.67-12.33 62.67-49.67-13.33v5l-20.33-3.34 4.66-30.33-136.66-26.67-24 28.67-40.67-10-19-1.67 2.33-33.33-134-26.33-13.33 31.33-60.33-16.67v-13.66l-55.67-9 1.67-7.34-235.62-56.11h-13.33l-9-.55-4.78-1.23s-1.11-3-.55-3.66c.55-.67.55-7.67 1.33-9.23.78-1.55-5.89-2.11-5.89-2.11l-7.66 1.67-6.12 3.89-1 6.78s-10.88-1.23-11.33-1.34c-.44-.11-8.11-.66-8.11-.66l-1.89-8.23-7.33-.77-5.34-5.34v-5.33s-6.88-5.44-7.44-5.78c-.56-.33-4.67.22-4.67.22l-1.77 3.56-.78 10.67-2.22 4.44-8.56 4.11-3.44 6.45-5.67-1.67-1.11-3.22-7.34-3.78-5.77.22-3 4-25.11-1.55-6 8.44-17.34-6-5.55-10.44-3.56-12.23-6.22-5.55-11.56-3.56-8.22-.44-2.22-2.89v-4.44c0-1.34-3.56-3.56-3.56-3.56l-2.89 3.56s-9.33-.67-10.44-1.56 1.11-4 4.67-5.33c3.55-1.34 0-14.67 0-16s-7.78.89-7.78.89-5.11 3.77-6 5.33c-.89 1.55-4.45 2.89-6 4.67-1.56 1.77-3.33 5.33-3.56 6-.22.66.45 6 1.56 9.33s-4 4.44-4 4.44l-5.11 1.11-5.78-4.66-9.56 2.66-2.66-7.33v-3.11l-212.67-40.44-5.78 1.11-9.53-14.23s-.69 14.45-.02 15.34c.66.89-16.89 9.78-16.89 9.11s-10.67-11.78-11.56-14.45c-.89-2.66-7.11-2.88-7.11-2.88l-10.66-9.56s-18.67-8.22-20.67-10.89-8.89-8.44-8.89-9.33 6.67-7.56 13.11-13.56c6.45-6-4.67-12.89-4.67-12.89s-17.55 5.78-21.55 8.45c-4 2.66-10.67-1.56-10.67-1.56s.45-11.55 3.78-20.66c3.33-9.12-13.11-10.67-13.11-10.67s-15.33 15.55-16 16c-.67.44-13.11 9.78-13.11 9.78s-10.45-17.34-11.11-20c-.67-2.67-12.89-1.78-14.23-1.34-1.33.45 8 9.78 10 11.34 2 1.55-1.33 16.44-1.33 16.44s-7.78-12.22-8-17.11-19.11-4-19.11-4l11.11 13.56H1541s-15.33 5.11-1.11 5.77c14.22.67 4 4.89 4 4.89l-13.78-.66s-15.33-7.78-20-7.78.22 9.11.22 9.11l12.89 5.33 2.89 4 5.11 2.89-166-33.78-29.33 18.23-12.45-1.34-83.11-16.89-2.44-12.22-42-7.78v-14.22l-262.22-47.78-15.34 10-47.55-8.66s-12.89 6.22-13.56 6.22-35.55-6.45-35.55-6.45l-4.45 2h-13.55l-2-29.77-79.56-15.34-30.89 17.56-32.22-4.67-2.44 1.56-14-2.45-4.67-31.55-71.56-10.89-32.66 18.89-44-7.34-31.56-337.55-6-22.67 12-4.9 8.78 4.67v3.22l25.78 3.55 2.89-1.77 6.77.44 5.34-2.33 98.89 15.33v6.11l3 1.89 48.88 8.56 4.78-2.23 6.22 1.11 9.56-4.88 98.22 15.33-.78 7.22 3.56 1.56v1.89l25.56 4.33 3.33-1.11 12.89 1.11 13.66-7.89 11 2.44 41.98 10.64 11.33-3.83 278.31 46.19 1.22 4.12 34.33 3.88 101.78 13.89 21.33-1.11 4.67-2 235.33 39.56h6l105.56 14.44 19.78 10 257.33 38.67 103.33 13.55 11.56 24.67 403.78 60.67 59.55 8.66-5.78 11.78 56.45 8.45h8.89l3.55-4.67 138.22 22v6.67l7.34 1.11v2.66l66.22 10.67v-2.67l9.56.89 4.44-4.22 142.67 21.56-1.56 8h7.78v4l34 5.55 1.78-2.89 17.55.67 4.67-5.11 16.33 4.33 80-156 40 6.34 34-73 90.89 9z"/>
</svg>